<svg width="404" height="104" viewBox="0 0 404 104" fill="rgb(255, 255, 255)" xmlns="http://www.w3.org/2000/svg">
    <path d="M137.89 80.4269C141.977 82.4419 146.871 83.4493 152.57 83.4493C158.558 83.4493 163.71 82.3267 168.028 80.0815C172.346 77.8363 175.742 74.8426 178.218 71.1006C180.693 67.3585 182.219 63.2423 182.795 58.7518H170.446C169.755 62.9544 167.769 66.2359 164.487 68.5963C161.263 70.8991 157.291 72.0505 152.57 72.0505C149.346 72.0505 146.497 71.5036 144.021 70.4097C141.603 69.3159 139.56 67.7903 137.89 65.8329C136.22 63.818 134.954 61.4864 134.09 58.8382C133.284 56.19 132.881 53.3115 132.881 50.2027C132.881 46.9788 133.284 44.0427 134.09 41.3945C134.954 38.7463 136.192 36.4435 137.804 34.4861C139.416 32.5287 141.431 31.0319 143.848 29.9956C146.266 28.9018 149.03 28.3549 152.139 28.3549C155.19 28.3549 157.924 28.873 160.342 29.9093C162.76 30.888 164.746 32.3848 166.301 34.3997C167.913 36.3571 168.949 38.7751 169.41 41.6536H181.758C181.24 36.7025 179.715 32.3848 177.181 28.7003C174.648 24.9583 171.252 22.0798 166.992 20.0648C162.789 17.9923 157.838 16.9561 152.139 16.9561C146.669 16.9561 141.92 17.906 137.89 19.8058C133.918 21.648 130.636 24.1235 128.046 27.2323C125.455 30.3411 123.526 33.7953 122.26 37.5949C121.051 41.3945 120.446 45.2517 120.446 49.1664V51.0662C120.446 54.578 121.051 58.2337 122.26 62.0333C123.469 65.8329 125.34 69.3447 127.873 72.5686C130.463 75.7925 133.803 78.412 137.89 80.4269Z" />
    <path fill-rule="evenodd" clip-rule="evenodd" d="M214.817 76.1092C215.411 75.1029 215.9 73.9927 216.285 72.7783V81.8086H225.784V52.707C225.784 48.3317 224.95 44.7911 223.28 42.0853C221.668 39.3795 219.25 37.3934 216.026 36.1268C212.86 34.8603 208.859 34.227 204.023 34.227C202.469 34.227 200.799 34.2558 199.014 34.3134C197.287 34.3134 195.589 34.371 193.919 34.4861C192.25 34.6012 190.753 34.7164 189.429 34.8315V45.0214C191.041 44.9063 192.854 44.8199 194.869 44.7623C196.942 44.6472 198.986 44.5608 201.001 44.5033C203.016 44.4457 204.743 44.4169 206.182 44.4169C208.945 44.4169 210.989 45.079 212.313 46.4031C213.637 47.7272 214.299 49.7421 214.299 52.4479V52.8797H204.714C200.569 52.8797 196.942 53.4266 193.833 54.5204C190.782 55.6143 188.393 57.255 186.666 59.4427C184.996 61.6303 184.161 64.4513 184.161 67.9054C184.161 71.0718 184.852 73.7776 186.234 76.0228C187.673 78.268 189.659 79.9951 192.192 81.2041C194.783 82.4131 197.777 83.0176 201.173 83.0176C204.455 83.0176 207.218 82.4419 209.463 81.2905C211.766 80.0815 213.551 78.3544 214.817 76.1092ZM212.658 70.4961C213.637 68.9993 214.184 66.9843 214.299 64.4512V60.0472H204.541C201.778 60.0472 199.648 60.738 198.151 62.1197C196.712 63.4438 195.992 65.1709 195.992 67.301C195.992 69.4311 196.712 71.1581 198.151 72.4823C199.648 73.8064 201.778 74.4684 204.541 74.4684C206.211 74.4684 207.736 74.1806 209.118 73.6049C210.557 72.9716 211.737 71.9353 212.658 70.4961Z" />
    <path d="M255.136 83.4493C251.048 83.4493 247.508 82.7585 244.514 81.3768C241.578 79.9951 239.102 78.1529 237.087 75.8501C235.13 73.5473 233.662 70.9567 232.683 68.0782C231.705 65.1997 231.215 62.2636 231.215 59.27V57.6292C231.215 54.4629 231.705 51.4404 232.683 48.562C233.72 45.6259 235.245 43.0352 237.26 40.79C239.275 38.4872 241.751 36.6738 244.687 35.3496C247.68 33.968 251.135 33.2771 255.049 33.2771C259.137 33.2771 262.792 34.0831 266.016 35.6951C269.24 37.2495 271.802 39.4371 273.702 42.258C275.659 45.079 276.753 48.3605 276.983 52.1025H265.326C265.038 49.6846 264.001 47.6696 262.217 46.0577C260.49 44.4457 258.1 43.6397 255.049 43.6397C252.401 43.6397 250.185 44.273 248.4 45.5395C246.673 46.8061 245.378 48.5619 244.514 50.8072C243.65 52.9948 243.219 55.5279 243.219 58.4064C243.219 61.1698 243.622 63.6741 244.428 65.9193C245.291 68.1645 246.587 69.9204 248.314 71.1869C250.098 72.4535 252.372 73.0867 255.136 73.0867C257.208 73.0867 258.993 72.7125 260.49 71.9641C261.986 71.2157 263.167 70.1795 264.03 68.8554C264.951 67.5312 265.527 66.0344 265.757 64.3649H277.415C277.185 68.1645 276.062 71.5036 274.047 74.3821C272.09 77.203 269.471 79.4194 266.189 81.0314C262.965 82.6434 259.281 83.4493 255.136 83.4493Z" />
    <path d="M292.385 80.7723C295.206 81.8661 298.775 82.4131 303.093 82.4131H309.829V72.1368H302.488C300.186 72.1368 298.401 71.5324 297.134 70.3234C295.926 69.0569 295.321 67.2722 295.321 64.9694L295.363 43.7261H309.829V34.9179H295.381L295.407 21.7056H284.181L284.154 34.9179H276.668V43.7261H284.136L284.095 64.1922C284.095 68.7402 284.786 72.3671 286.167 75.0729C287.549 77.7211 289.622 79.6209 292.385 80.7723Z" />
    <path d="M331.561 83.2766C326.149 83.2766 321.947 81.492 318.953 77.9226C316.017 74.3533 314.549 69.0568 314.549 62.0333V34.8315H326.552V63.0696C326.552 65.9481 327.358 68.2509 328.97 69.978C330.582 71.6475 332.77 72.4823 335.533 72.4823C338.297 72.4823 340.542 71.5899 342.269 69.8053C344.054 68.0206 344.946 65.6027 344.946 62.5514V34.8315H356.949V81.8086H347.45V70.8891C347.209 71.8825 346.921 72.8165 346.587 73.6912C345.378 76.8576 343.564 79.2467 341.146 80.8587C338.729 82.4706 335.706 83.2766 332.079 83.2766H331.561Z" />
    <path d="M368.234 79.2179C371.918 81.9237 376.984 83.2766 383.432 83.2766C387.577 83.2766 391.175 82.6433 394.226 81.3768C397.278 80.1103 399.638 78.3544 401.307 76.1092C403.035 73.8064 403.898 71.1006 403.898 67.9918C403.898 63.7892 402.315 60.4501 399.149 57.9746C396.04 55.4991 391.722 53.9735 386.195 53.3978L382.05 52.966C379.517 52.6782 377.675 52.1313 376.524 51.3253C375.43 50.5193 374.883 49.3679 374.883 47.8711C374.883 46.3167 375.574 45.0502 376.955 44.0715C378.337 43.0928 380.294 42.6035 382.828 42.6035C385.648 42.6035 387.807 43.1792 389.304 44.3306C390.801 45.482 391.607 46.8636 391.722 48.4756H402.516C402.344 43.5821 400.473 39.8689 396.903 37.3358C393.334 34.8027 388.671 33.5362 382.914 33.5362C379.229 33.5362 375.948 34.1119 373.069 35.2633C370.249 36.3571 368.032 37.9979 366.42 40.1855C364.808 42.3732 364.002 45.079 364.002 48.3029C364.002 52.3328 365.413 55.5567 368.234 57.9746C371.054 60.3926 375.084 61.8894 380.323 62.4651L384.468 62.8969C387.577 63.1847 389.765 63.7892 391.031 64.7103C392.355 65.6314 393.017 66.8692 393.017 68.4236C393.017 70.2082 392.154 71.6187 390.427 72.655C388.757 73.6912 386.483 74.2094 383.605 74.2094C380.151 74.2094 377.617 73.5473 376.005 72.2232C374.394 70.8991 373.501 69.431 373.328 67.8191H362.534C362.707 72.655 364.607 76.4546 368.234 79.2179Z" />
    <path fill-rule="evenodd" clip-rule="evenodd" d="M52.3877 0C23.7746 0 0.579102 23.1955 0.579102 51.8086C0.579102 80.4217 23.7746 103.617 52.3877 103.617C81.0008 103.617 104.196 80.4217 104.196 51.8086C104.196 23.1955 81.0008 0 52.3877 0ZM12.1963 51.8086C12.1963 29.6115 30.1906 11.6172 52.3877 11.6172C74.5848 11.6172 92.5791 29.6115 92.5791 51.8086C92.5791 72.0662 77.592 88.8233 58.1009 91.597V82.7316L68.4167 78.9234C74.3785 76.7225 78.3379 71.0404 78.3379 64.6853V47.2295C78.3379 44.0215 75.7373 41.4209 72.5293 41.4209C69.3213 41.4209 66.7207 44.0215 66.7207 47.2295V64.6853C66.7207 66.176 65.7919 67.5088 64.3935 68.0251L58.1009 70.3481V24.3701C58.1009 21.1621 55.5003 18.5615 52.2923 18.5615C49.0842 18.5615 46.4836 21.1621 46.4836 24.3701V49.293L40.379 47.0395C38.9805 46.5232 38.0518 45.1903 38.0518 43.6996V36.1747C38.0518 32.9667 35.4512 30.3661 32.2432 30.3661C29.0352 30.3661 26.4346 32.9667 26.4346 36.1747V43.6996C26.4346 50.0547 30.3939 55.7369 36.3558 57.9378L46.4836 61.6766V91.5694C27.0856 88.7138 12.1963 72 12.1963 51.8086Z" />
</svg>
