<svg width="240" height="62" viewBox="0 0 240 62" fill="none" xmlns="http://www.w3.org/2000/svg">
<path d="M85.3066 43.9555C83.356 43.9555 81.6333 43.6262 80.1386 42.9675C78.644 42.2835 77.466 41.3208 76.6046 40.0795C75.7433 38.8128 75.3 37.2802 75.2746 35.4815H80.4046C80.4553 36.7228 80.8986 37.7742 81.7346 38.6355C82.596 39.4715 83.774 39.8895 85.2686 39.8895C86.5606 39.8895 87.5866 39.5855 88.3466 38.9775C89.1066 38.3442 89.4866 37.5082 89.4866 36.4695C89.4866 35.3802 89.1446 34.5315 88.4606 33.9235C87.802 33.3155 86.9153 32.8215 85.8006 32.4415C84.686 32.0615 83.4953 31.6562 82.2286 31.2255C80.1766 30.5162 78.606 29.6042 77.5166 28.4895C76.4526 27.3748 75.9206 25.8928 75.9206 24.0435C75.8953 22.4728 76.2626 21.1302 77.0226 20.0155C77.808 18.8755 78.872 18.0015 80.2146 17.3935C81.5573 16.7602 83.1026 16.4435 84.8506 16.4435C86.624 16.4435 88.182 16.7602 89.5246 17.3935C90.8926 18.0268 91.9566 18.9135 92.7166 20.0535C93.502 21.1935 93.92 22.5488 93.9706 24.1195H88.7646C88.7393 23.1822 88.372 22.3588 87.6626 21.6495C86.9786 20.9148 86.016 20.5475 84.7746 20.5475C83.7106 20.5222 82.8113 20.7882 82.0766 21.3455C81.3673 21.8775 81.0126 22.6628 81.0126 23.7015C81.0126 24.5882 81.2913 25.2975 81.8486 25.8295C82.406 26.3362 83.166 26.7668 84.1286 27.1215C85.0913 27.4762 86.1933 27.8562 87.4346 28.2615C88.752 28.7175 89.9553 29.2495 91.0446 29.8575C92.134 30.4655 93.008 31.2762 93.6666 32.2895C94.3253 33.2775 94.6546 34.5568 94.6546 36.1275C94.6546 37.5208 94.3 38.8128 93.5906 40.0035C92.8813 41.1942 91.83 42.1568 90.4366 42.8915C89.0433 43.6008 87.3333 43.9555 85.3066 43.9555ZM98.7845 43.4995V16.1395H103.648V27.5395C104.282 26.5008 105.13 25.6902 106.194 25.1075C107.284 24.4995 108.525 24.1955 109.918 24.1955C112.249 24.1955 114.048 24.9302 115.314 26.3995C116.606 27.8688 117.252 30.0222 117.252 32.8595V43.4995H112.426V33.3155C112.426 31.6942 112.097 30.4528 111.438 29.5915C110.805 28.7302 109.792 28.2995 108.398 28.2995C107.03 28.2995 105.89 28.7808 104.978 29.7435C104.092 30.7062 103.648 32.0488 103.648 33.7715V43.4995H98.7845ZM128.402 43.9555C126.78 43.9555 125.45 43.7022 124.412 43.1955C123.373 42.6635 122.6 41.9668 122.094 41.1055C121.587 40.2442 121.334 39.2942 121.334 38.2555C121.334 36.5075 122.018 35.0888 123.386 33.9995C124.754 32.9102 126.806 32.3655 129.542 32.3655H134.33V31.9095C134.33 30.6175 133.962 29.6675 133.228 29.0595C132.493 28.4515 131.581 28.1475 130.492 28.1475C129.504 28.1475 128.642 28.3882 127.908 28.8695C127.173 29.3255 126.717 30.0095 126.54 30.9215H121.79C121.916 29.5535 122.372 28.3628 123.158 27.3495C123.968 26.3362 125.007 25.5635 126.274 25.0315C127.54 24.4742 128.959 24.1955 130.53 24.1955C133.215 24.1955 135.33 24.8668 136.876 26.2095C138.421 27.5522 139.194 29.4522 139.194 31.9095V43.4995H135.052L134.596 40.4595C134.038 41.4728 133.253 42.3088 132.24 42.9675C131.252 43.6262 129.972 43.9555 128.402 43.9555ZM129.504 40.1555C130.897 40.1555 131.974 39.6995 132.734 38.7875C133.519 37.8755 134.013 36.7482 134.216 35.4055H130.074C128.782 35.4055 127.857 35.6462 127.3 36.1275C126.742 36.5835 126.464 37.1535 126.464 37.8375C126.464 38.5722 126.742 39.1422 127.3 39.5475C127.857 39.9528 128.592 40.1555 129.504 40.1555ZM152.499 43.9555C150.726 43.9555 149.143 43.5248 147.749 42.6635C146.356 41.8022 145.254 40.6242 144.443 39.1295C143.633 37.6348 143.227 35.9375 143.227 34.0375C143.227 32.1375 143.633 30.4528 144.443 28.9835C145.254 27.4888 146.356 26.3235 147.749 25.4875C149.143 24.6262 150.726 24.1955 152.499 24.1955C153.918 24.1955 155.159 24.4615 156.223 24.9935C157.287 25.5255 158.149 26.2728 158.807 27.2355V16.1395H163.671V43.4995H159.339L158.807 40.8015C158.199 41.6375 157.389 42.3722 156.375 43.0055C155.387 43.6388 154.095 43.9555 152.499 43.9555ZM153.525 39.6995C155.096 39.6995 156.375 39.1802 157.363 38.1415C158.377 37.0775 158.883 35.7222 158.883 34.0755C158.883 32.4288 158.377 31.0862 157.363 30.0475C156.375 28.9835 155.096 28.4515 153.525 28.4515C151.98 28.4515 150.701 28.9708 149.687 30.0095C148.674 31.0482 148.167 32.3908 148.167 34.0375C148.167 35.6842 148.674 37.0395 149.687 38.1035C150.701 39.1675 151.98 39.6995 153.525 39.6995ZM177.668 43.9555C175.844 43.9555 174.198 43.5375 172.728 42.7015C171.284 41.8655 170.132 40.7128 169.27 39.2435C168.434 37.7488 168.016 36.0262 168.016 34.0755C168.016 32.1248 168.447 30.4148 169.308 28.9455C170.17 27.4508 171.322 26.2855 172.766 25.4495C174.236 24.6135 175.882 24.1955 177.706 24.1955C179.505 24.1955 181.126 24.6135 182.57 25.4495C184.04 26.2855 185.192 27.4508 186.028 28.9455C186.89 30.4148 187.32 32.1248 187.32 34.0755C187.32 36.0262 186.89 37.7488 186.028 39.2435C185.192 40.7128 184.04 41.8655 182.57 42.7015C181.101 43.5375 179.467 43.9555 177.668 43.9555ZM177.668 39.7375C178.935 39.7375 180.037 39.2688 180.974 38.3315C181.912 37.3688 182.38 35.9502 182.38 34.0755C182.38 32.2008 181.912 30.7948 180.974 29.8575C180.037 28.8948 178.948 28.4135 177.706 28.4135C176.414 28.4135 175.3 28.8948 174.362 29.8575C173.45 30.7948 172.994 32.2008 172.994 34.0755C172.994 35.9502 173.45 37.3688 174.362 38.3315C175.3 39.2688 176.402 39.7375 177.668 39.7375ZM194.687 43.4995L189.177 24.6515H194.003L197.271 38.2175L201.071 24.6515H206.467L210.267 38.2175L213.573 24.6515H218.399L212.851 43.4995H207.797L203.769 29.4015L199.741 43.4995H194.687ZM229.258 43.9555C227.586 43.9555 226.117 43.6895 224.85 43.1575C223.583 42.6002 222.57 41.8402 221.81 40.8775C221.05 39.9148 220.594 38.8002 220.442 37.5335H225.344C225.496 38.2682 225.901 38.9015 226.56 39.4335C227.244 39.9402 228.118 40.1935 229.182 40.1935C230.246 40.1935 231.019 39.9782 231.5 39.5475C232.007 39.1168 232.26 38.6228 232.26 38.0655C232.26 37.2548 231.905 36.7102 231.196 36.4315C230.487 36.1275 229.499 35.8362 228.232 35.5575C227.421 35.3802 226.598 35.1648 225.762 34.9115C224.926 34.6582 224.153 34.3415 223.444 33.9615C222.76 33.5562 222.203 33.0495 221.772 32.4415C221.341 31.8082 221.126 31.0355 221.126 30.1235C221.126 28.4515 221.785 27.0455 223.102 25.9055C224.445 24.7655 226.319 24.1955 228.726 24.1955C230.955 24.1955 232.729 24.7148 234.046 25.7535C235.389 26.7922 236.187 28.2235 236.44 30.0475H231.842C231.563 28.6542 230.512 27.9575 228.688 27.9575C227.776 27.9575 227.067 28.1348 226.56 28.4895C226.079 28.8442 225.838 29.2875 225.838 29.8195C225.838 30.3768 226.205 30.8202 226.94 31.1495C227.675 31.4788 228.65 31.7828 229.866 32.0615C231.183 32.3655 232.387 32.7075 233.476 33.0875C234.591 33.4422 235.477 33.9868 236.136 34.7215C236.795 35.4308 237.124 36.4568 237.124 37.7995C237.149 38.9648 236.845 40.0162 236.212 40.9535C235.579 41.8908 234.667 42.6255 233.476 43.1575C232.285 43.6895 230.879 43.9555 229.258 43.9555Z" fill="#170F49"/>
<path d="M32.9219 8.84226C32.9219 5.86885 36.5379 4.40339 38.608 6.53787L57.6821 26.2056C58.9383 27.5009 59.6408 29.2344 59.6408 31.0388V53.8041C59.6408 56.7775 56.0248 58.243 53.9547 56.1085L34.8806 36.4407C33.6244 35.1454 32.9219 33.4119 32.9219 31.6075V8.84226Z" fill="#9328FF"/>
<path d="M16.3633 8.19578C16.3633 5.22237 19.9793 3.75691 22.0494 5.89139L40.842 25.2689C42.2788 26.7503 43.0823 28.733 43.0823 30.7966V53.1576C43.0823 56.131 39.4662 57.5965 37.3961 55.462L18.322 35.7942C17.0658 34.4989 16.3633 32.7654 16.3633 30.9611V8.19578Z" fill="#4CBFFF"/>
<path d="M0.359375 8.84226C0.359375 5.86885 3.97542 4.40339 6.04548 6.53787L25.1196 26.2056C26.3758 27.5009 27.0783 29.2344 27.0783 31.0388V53.8041C27.0783 56.7775 23.4623 58.243 21.3922 56.1085L2.3181 36.4407C1.06191 35.1454 0.359375 33.4119 0.359375 31.6075V8.84226Z" fill="#4A3AFF"/>
</svg>
